<svg width="32" height="32" viewBox="0 0 32 32" fill="none" xmlns="http://www.w3.org/2000/svg">
<g clip-path="url(#clip0_116_2706)">
<path d="M16 32C24.8366 32 32 24.8366 32 16C32 7.16344 24.8366 0 16 0C7.16344 0 0 7.16344 0 16C0 24.8366 7.16344 32 16 32Z" fill="#232F3E"/>
<path d="M12 10C10.4087 10 8.88258 10.6321 7.75736 11.7574C6.63214 12.8826 6 14.4087 6 16C6 17.5913 6.63214 19.1174 7.75736 20.2426C8.88258 21.3679 10.4087 22 12 22H21C22.5913 22 24.1174 21.3679 25.2426 20.2426C26.3679 19.1174 27 17.5913 27 16C27 14.4087 26.3679 12.8826 25.2426 11.7574C24.1174 10.6321 22.5913 10 21 10H12Z" stroke="#C74634" stroke-width="3"/>
</g>
<defs>
<clipPath id="clip0_116_2706">
<rect width="32" height="32" fill="white"/>
</clipPath>
</defs>
</svg>
