<svg width="32" height="32" viewBox="0 0 32 32" fill="none" xmlns="http://www.w3.org/2000/svg">
<g clip-path="url(#clip0_116_2717)">
<path d="M16 32C24.8366 32 32 24.8366 32 16C32 7.16344 24.8366 0 16 0C7.16344 0 0 7.16344 0 16C0 24.8366 7.16344 32 16 32Z" fill="#232F3E"/>
<path d="M12.5093 14.972C12.5093 15.1688 12.5312 15.3282 12.5687 15.4438C12.6125 15.5626 12.6656 15.6907 12.7406 15.8282C12.7687 15.8688 12.7781 15.9126 12.7781 15.9501C12.7781 16.0032 12.7468 16.0563 12.6781 16.1095L12.3437 16.3313C12.3031 16.3595 12.2562 16.3782 12.2062 16.3782C12.1531 16.3782 12.1 16.3501 12.0468 16.3032C11.975 16.2251 11.9125 16.1438 11.8562 16.0532C11.7968 15.9501 11.7406 15.847 11.6906 15.7407C11.275 16.2313 10.7531 16.4751 10.125 16.4751C9.67808 16.4751 9.32183 16.347 9.06246 16.0938C8.80308 15.8376 8.66871 15.497 8.66871 15.072C8.66871 14.6188 8.82808 14.2532 9.15308 13.9751C9.47808 13.697 9.90933 13.5595 10.4562 13.5595C10.6375 13.5595 10.825 13.5751 11.0187 13.6032C11.2156 13.6313 11.4187 13.672 11.6312 13.722V13.3345C11.6312 12.9313 11.5468 12.647 11.3812 12.4845C11.2125 12.3188 10.925 12.2407 10.5156 12.2407C10.3281 12.2407 10.1375 12.2626 9.94058 12.3095C9.74371 12.3563 9.55308 12.4157 9.36558 12.4907C9.30621 12.5188 9.24371 12.5407 9.17808 12.5595C9.14996 12.5688 9.12183 12.572 9.09371 12.5751C9.01871 12.5751 8.98121 12.522 8.98121 12.4095V12.1501C8.98121 12.0657 8.99058 12.0001 9.01871 11.9626C9.05933 11.9157 9.10933 11.8751 9.16871 11.8501C9.35621 11.7532 9.57808 11.6751 9.83746 11.6095C10.1093 11.5407 10.3875 11.5063 10.6687 11.5095C11.3031 11.5095 11.7656 11.6532 12.0625 11.9407C12.3562 12.2282 12.5031 12.6626 12.5031 13.2501V14.9751L12.5093 14.972ZM10.35 15.7813C10.525 15.7813 10.7062 15.7501 10.8968 15.6845C11.0875 15.622 11.2593 15.5032 11.4031 15.3438C11.4875 15.2438 11.5531 15.1313 11.5843 15.0032C11.6156 14.8751 11.6375 14.722 11.6375 14.5407V14.3188C11.475 14.2782 11.3125 14.2501 11.1468 14.2282C10.9812 14.2063 10.8125 14.197 10.6468 14.197C10.2906 14.197 10.0281 14.2657 9.85308 14.4095C9.67808 14.5532 9.59371 14.7563 9.59371 15.022C9.59371 15.272 9.65621 15.4595 9.79058 15.5845C9.91871 15.7188 10.1031 15.7813 10.35 15.7813ZM14.6218 16.3563C14.525 16.3563 14.4625 16.3407 14.4187 16.3032C14.375 16.272 14.3375 16.197 14.3062 16.097L13.0562 11.9845C13.0312 11.9157 13.0156 11.8438 13.0093 11.772C13.0093 11.6876 13.0531 11.6376 13.1375 11.6376H13.6593C13.7593 11.6376 13.8281 11.6532 13.8656 11.6907C13.9093 11.722 13.9406 11.797 13.9718 11.9001L14.8656 15.422L15.6968 11.9001C15.725 11.7938 15.7562 11.7251 15.7968 11.6907C15.8593 11.6501 15.9343 11.6313 16.0093 11.6376H16.4375C16.5375 11.6376 16.6093 11.6532 16.65 11.6907C16.6906 11.722 16.7312 11.797 16.75 11.9001L17.5906 15.4657L18.5125 11.9001C18.5437 11.7938 18.5812 11.7251 18.6187 11.6907C18.6812 11.6501 18.7531 11.6313 18.825 11.6376H19.3218C19.4062 11.6376 19.4562 11.6813 19.4562 11.772C19.4562 11.8001 19.45 11.8251 19.4437 11.8563C19.4343 11.9032 19.4218 11.947 19.4062 11.9907L18.125 16.1032C18.0937 16.2095 18.0562 16.2782 18.0125 16.3095C17.9531 16.347 17.8812 16.3657 17.8093 16.3626H17.35C17.25 16.3626 17.1812 16.347 17.1375 16.3095C17.0968 16.272 17.0593 16.2032 17.0375 16.097L16.2125 12.6657L15.3937 16.0938C15.3656 16.2001 15.3343 16.2688 15.2937 16.3063C15.25 16.3438 15.175 16.3595 15.0812 16.3595L14.6218 16.3563ZM21.4593 16.5001C21.1812 16.5001 20.9062 16.4688 20.6406 16.4032C20.375 16.3407 20.1687 16.2688 20.0281 16.1907C19.9437 16.1438 19.8843 16.0907 19.8625 16.0407C19.8406 15.9938 19.8312 15.9438 19.8312 15.8907V15.6188C19.8312 15.5063 19.875 15.4532 19.9531 15.4532C19.9843 15.4532 20.0156 15.4595 20.05 15.4688C20.0812 15.4782 20.1312 15.5001 20.1843 15.522C20.3656 15.6032 20.5625 15.6657 20.7687 15.7095C20.9812 15.7532 21.1875 15.772 21.4031 15.772C21.7375 15.772 22 15.7126 22.1812 15.597C22.3562 15.4907 22.4625 15.297 22.4593 15.0907C22.4625 14.9532 22.4125 14.8188 22.3156 14.7188C22.2187 14.6188 22.0375 14.5282 21.7781 14.4407L21.0062 14.2001C20.6187 14.0782 20.3312 13.897 20.1562 13.6595C19.9843 13.4376 19.8906 13.1657 19.8906 12.8876C19.8906 12.6657 19.9406 12.4688 20.0343 12.297C20.1312 12.1282 20.2562 11.9782 20.4187 11.8595C20.5781 11.7376 20.7593 11.647 20.9718 11.5813C21.1843 11.5188 21.4093 11.4907 21.6437 11.4907C21.7593 11.4907 21.8843 11.497 22 11.5126C22.1218 11.5282 22.2343 11.5501 22.3468 11.572C22.4531 11.6001 22.5562 11.6251 22.65 11.6563C22.7468 11.6876 22.8218 11.7188 22.875 11.7532C22.9375 11.7845 22.9937 11.8313 23.0343 11.8876C23.0687 11.9407 23.0843 12.0001 23.0812 12.0626V12.3126C23.0812 12.4251 23.0375 12.4845 22.9593 12.4845C22.8875 12.4751 22.8187 12.4532 22.7562 12.422C22.4343 12.2813 22.0875 12.2095 21.7343 12.2157C21.4312 12.2157 21.1906 12.2626 21.025 12.3657C20.8593 12.4657 20.775 12.622 20.775 12.8376C20.775 12.9876 20.8281 13.1157 20.9343 13.2157C21.0406 13.3157 21.2375 13.4188 21.5187 13.5095L22.275 13.747C22.6562 13.8688 22.9343 14.0407 23.1 14.2595C23.2656 14.4782 23.3437 14.7282 23.3437 15.0032C23.3437 15.2313 23.2968 15.4407 23.2062 15.622C23.1093 15.8032 22.9812 15.9626 22.8187 16.0907C22.6531 16.2251 22.4562 16.3188 22.2281 16.3876C21.9812 16.4626 21.7312 16.5001 21.4593 16.5001ZM22.4656 19.0845C20.7156 20.3782 18.1718 21.0626 15.9843 21.0626C12.9187 21.0626 10.1562 19.9282 8.07183 18.0438C7.90621 17.8938 8.05621 17.6938 8.25308 17.8095C10.5093 19.1188 13.2937 19.9126 16.1718 19.9126C18.1156 19.9126 20.2468 19.5095 22.2125 18.6782C22.5031 18.547 22.7531 18.872 22.4656 19.0845ZM23.1937 18.2563C22.9687 17.9688 21.7125 18.1188 21.1437 18.1876C20.975 18.2095 20.9468 18.0595 21.1031 17.947C22.1031 17.2438 23.7468 17.447 23.9406 17.6813C24.1312 17.922 23.8875 19.5657 22.95 20.3532C22.8062 20.4751 22.6687 20.4126 22.7312 20.2532C22.9437 19.7251 23.4187 18.5376 23.1937 18.2563Z" fill="white"/>
</g>
<defs>
<clipPath id="clip0_116_2717">
<rect width="32" height="32" fill="white"/>
</clipPath>
</defs>
</svg>
