<svg width="32" height="32" viewBox="0 0 32 32" fill="none" xmlns="http://www.w3.org/2000/svg">
<g clip-path="url(#clip0_116_2672)">
<path d="M16 32C24.8366 32 32 24.8366 32 16C32 7.16344 24.8366 0 16 0C7.16344 0 0 7.16344 0 16C0 24.8366 7.16344 32 16 32Z" fill="#232F3E"/>
<path d="M20.5728 7H11.552C11.1796 7 10.8358 7.19844 10.6499 7.52083L6.13945 15.3333C5.95352 15.6557 5.95352 16.0526 6.13945 16.375L10.6499 24.1875C10.8358 24.5099 11.1801 24.7083 11.552 24.7083H20.5728C20.9452 24.7083 21.2889 24.5099 21.4749 24.1875L25.9853 16.375C26.1712 16.0526 26.1712 15.6557 25.9853 15.3333L21.4749 7.52083C21.2889 7.19844 20.9452 7 20.5728 7Z" fill="#2979FF"/>
<path d="M20.1042 21.4583H11.7708C11.4833 21.4583 11.25 21.225 11.25 20.9375V10.5208C11.25 10.2333 11.4833 10 11.7708 10H18.5417L20.625 12.0833V20.9375C20.625 21.225 20.3917 21.4583 20.1042 21.4583Z" fill="white"/>
<path d="M15.0443 15.037H14.349V12.8229L13.6656 13.0224V12.4958L14.9802 12.0411H15.0438L15.0443 15.037ZM18.3969 13.8125C18.3969 14.0292 18.3714 14.2167 18.3208 14.3755C18.2703 14.5333 18.199 14.6651 18.1068 14.7693C18.0151 14.8734 17.9052 14.951 17.7776 15.0016C17.65 15.0521 17.5094 15.0776 17.3557 15.0776C17.2005 15.0776 17.0589 15.0521 16.9307 15.0016C16.8026 14.951 16.6927 14.8734 16.601 14.7693C16.5094 14.6651 16.437 14.5333 16.3859 14.3755C16.3344 14.2167 16.3094 14.0292 16.3094 13.8125V13.2651C16.3094 13.05 16.3349 12.8625 16.3854 12.7036C16.4359 12.5448 16.5073 12.413 16.5995 12.3089C16.6911 12.2047 16.801 12.1271 16.9286 12.0766C17.0552 12.0255 17.1964 12 17.3516 12C17.5052 12 17.6458 12.0255 17.774 12.076C17.9021 12.1266 18.0125 12.2042 18.1047 12.3083C18.1964 12.4125 18.2677 12.5443 18.3193 12.7031C18.3708 12.862 18.3969 13.0495 18.3969 13.2646V13.8125ZM17.7031 13.1771C17.7031 13.0578 17.6948 12.9578 17.6786 12.8755C17.662 12.7948 17.6391 12.7281 17.6089 12.6771C17.5786 12.6266 17.5417 12.5901 17.4984 12.5682C17.4552 12.5464 17.4068 12.5354 17.3516 12.5354C17.2969 12.5354 17.2474 12.5464 17.2042 12.5682C17.1609 12.5901 17.1245 12.6266 17.0953 12.6771C17.0656 12.7276 17.0432 12.7943 17.0276 12.8755C17.012 12.9578 17.0042 13.0578 17.0042 13.1771V13.8974C17.0042 14.0193 17.0115 14.1219 17.0276 14.2042C17.0432 14.2865 17.0667 14.3531 17.0969 14.4026C17.1271 14.4531 17.1641 14.4891 17.2078 14.5109C17.2516 14.5328 17.301 14.5438 17.3557 14.5438C17.4094 14.5438 17.4573 14.5328 17.5005 14.5109C17.5438 14.4891 17.5807 14.4531 17.6109 14.4026C17.6411 14.3531 17.6635 14.2865 17.6797 14.2042C17.6953 14.1219 17.7036 14.0198 17.7036 13.8974L17.7031 13.1771ZM15.5875 18.0266C15.5875 18.2432 15.562 18.4307 15.5115 18.5896C15.4609 18.7474 15.3896 18.8792 15.2974 18.9833C15.2057 19.0875 15.0958 19.1651 14.9682 19.2156C14.8406 19.2661 14.7 19.2917 14.5464 19.2917C14.3911 19.2917 14.2495 19.2661 14.1214 19.2156C13.9932 19.1651 13.8833 19.0875 13.7917 18.9833C13.7 18.8792 13.6276 18.7474 13.5766 18.5896C13.525 18.4307 13.5 18.2432 13.5 18.0266V17.4792C13.5 17.2641 13.5255 17.0766 13.576 16.9177C13.6266 16.7589 13.6979 16.6271 13.7901 16.5229C13.8818 16.4187 13.9917 16.3411 14.1193 16.2906C14.2469 16.2401 14.388 16.2146 14.5432 16.2146C14.6969 16.2146 14.8375 16.2401 14.9656 16.2906C15.0938 16.3411 15.2042 16.4187 15.2964 16.5229C15.388 16.6271 15.4594 16.7589 15.5109 16.9177C15.5625 17.0766 15.5885 17.2641 15.5885 17.4792V18.0266H15.5875ZM14.8943 17.3906C14.8943 17.2714 14.8859 17.1714 14.8698 17.0891C14.8531 17.0083 14.8302 16.9417 14.8 16.8906C14.7698 16.8401 14.7328 16.8036 14.6896 16.7818C14.6464 16.7599 14.5979 16.749 14.5427 16.749C14.4875 16.749 14.4385 16.7599 14.3953 16.7818C14.3521 16.8036 14.3156 16.8401 14.2865 16.8906C14.2568 16.9411 14.2344 17.0078 14.2188 17.0891C14.2031 17.1714 14.1953 17.2714 14.1953 17.3906V18.1109C14.1953 18.2328 14.2026 18.3354 14.2188 18.4177C14.2344 18.5 14.2578 18.5667 14.288 18.6161C14.3182 18.6667 14.3552 18.7026 14.399 18.7245C14.4427 18.7464 14.4922 18.7573 14.5469 18.7573C14.6005 18.7573 14.6484 18.7464 14.6917 18.7245C14.7349 18.7026 14.7719 18.6667 14.8021 18.6161C14.8323 18.5667 14.8547 18.5 14.8708 18.4177C14.8865 18.3354 14.8948 18.2333 14.8948 18.1109V17.3906H14.8943ZM17.8536 19.2505H17.1583V17.0365L16.475 17.2359V16.7094L17.7896 16.2547H17.8531L17.8536 19.2505Z" fill="#03A9F4"/>
<path d="M18.5 10V11.5625C18.5 11.85 18.7333 12.0833 19.0208 12.0833H20.5833L18.5 10Z" fill="#B1CFFF"/>
</g>
<defs>
<clipPath id="clip0_116_2672">
<rect width="32" height="32" fill="white"/>
</clipPath>
</defs>
</svg>
