<svg width="32" height="32" viewBox="0 0 32 32" fill="none" xmlns="http://www.w3.org/2000/svg">
<g clip-path="url(#clip0_116_2688)">
<path d="M16 32C24.8366 32 32 24.8366 32 16C32 7.16344 24.8366 0 16 0C7.16344 0 0 7.16344 0 16C0 24.8366 7.16344 32 16 32Z" fill="#232F3E"/>
<path d="M21.9051 20.2517L18.2349 18.1314C17.7192 17.8345 17.0599 18.0111 16.7615 18.5267C16.6458 18.7298 16.6005 18.9532 16.6224 19.1704V23.3142C16.6224 23.9064 17.1036 24.3876 17.6974 24.3876C18.2895 24.3876 18.7708 23.9064 18.7708 23.3142V20.9314L20.827 22.1189C21.3426 22.4173 22.0035 22.2392 22.3004 21.7236C22.5988 21.2079 22.4223 20.5486 21.9051 20.2517Z" fill="#29B5E8"/>
<path d="M12.7772 15.7077C12.7835 15.3249 12.5819 14.9687 12.2507 14.7765L8.58046 12.6577C8.42109 12.5655 8.23828 12.5171 8.05547 12.5171C7.67892 12.5171 7.32893 12.7187 7.14143 13.0437C6.85081 13.5468 7.02425 14.1921 7.52736 14.4827L9.64294 15.703L7.52736 16.9249C7.28362 17.0655 7.10862 17.2921 7.03675 17.564C6.96331 17.8358 7.00081 18.1202 7.14143 18.364C7.32893 18.689 7.67892 18.8905 8.05391 18.8905C8.23828 18.8905 8.42109 18.8421 8.58046 18.7499L12.2507 16.6312C12.5788 16.4405 12.7804 16.0874 12.7772 15.7077Z" fill="#29B5E8"/>
<path d="M9.41311 11.1562L13.0833 13.275C13.5114 13.5234 14.0396 13.4422 14.3771 13.1125C14.5911 12.9156 14.7239 12.6344 14.7239 12.3219V8.075C14.7239 7.48125 14.2427 7 13.6505 7C13.0568 7 12.5755 7.48125 12.5755 8.075V10.4922L10.4912 9.28906C9.97559 8.99062 9.31623 9.16719 9.0178 9.68281C8.71937 10.1984 8.89749 10.8578 9.41311 11.1562Z" fill="#29B5E8"/>
<path d="M17.6657 15.8797C17.6657 15.9609 17.6189 16.0734 17.561 16.1328L16.1064 17.5875C16.0486 17.6453 15.9345 17.6922 15.8533 17.6922H15.483C15.4017 17.6922 15.2877 17.6453 15.2298 17.5875L13.7736 16.1328C13.7158 16.0734 13.6689 15.9609 13.6689 15.8797V15.5094C13.6689 15.4266 13.7158 15.3141 13.7736 15.2562L15.2298 13.8C15.2877 13.7422 15.4017 13.6953 15.483 13.6953H15.8533C15.9345 13.6953 16.0486 13.7422 16.1064 13.8L17.561 15.2562C17.6189 15.3141 17.6657 15.4266 17.6657 15.5094V15.8797ZM16.3673 15.7016V15.6859C16.3673 15.6266 16.3329 15.5437 16.2908 15.5L15.8611 15.0719C15.8189 15.0281 15.7361 14.9937 15.6751 14.9937H15.6595C15.6001 14.9937 15.5173 15.0281 15.4736 15.0719L15.0455 15.5C15.0033 15.5422 14.9689 15.625 14.9689 15.6859V15.7016C14.9689 15.7625 15.0033 15.8453 15.0455 15.8875L15.4736 16.3172C15.5173 16.3594 15.6001 16.3937 15.6595 16.3937H15.6751C15.7361 16.3937 15.8189 16.3594 15.8611 16.3172L16.2908 15.8875C16.3329 15.8453 16.3673 15.7625 16.3673 15.7016Z" fill="#29B5E8"/>
<path d="M18.2354 13.275L21.9056 11.1562C22.4212 10.8594 22.5994 10.1984 22.3009 9.68281C22.0025 9.16719 21.3431 8.99062 20.8275 9.28906L18.7713 10.4766V8.075C18.7713 7.48125 18.2901 7 17.6979 7C17.1042 7 16.6229 7.48125 16.6229 8.075V12.2375C16.6026 12.4531 16.6448 12.6781 16.762 12.8812C17.0604 13.3969 17.7198 13.5734 18.2354 13.275Z" fill="#29B5E8"/>
<path d="M13.8193 18.0063C13.5755 17.9595 13.3146 17.9985 13.0833 18.1313L9.41311 20.2516C8.89749 20.5485 8.71937 21.2079 9.0178 21.7235C9.31623 22.2407 9.97559 22.4173 10.4912 22.1188L12.5755 20.9157V23.3141C12.5755 23.9063 13.0568 24.3876 13.6505 24.3876C14.2427 24.3876 14.7239 23.9063 14.7239 23.3141V19.0673C14.7239 18.5313 14.3317 18.0876 13.8193 18.0063Z" fill="#29B5E8"/>
<path d="M24.1993 13.0311C23.9024 12.5139 23.2415 12.3374 22.7259 12.6358L19.0557 14.7546C18.7041 14.9577 18.5104 15.3296 18.5166 15.7077C18.5135 16.0843 18.7072 16.4514 19.0557 16.6514L22.7259 18.7718C23.2415 19.0686 23.9009 18.8921 24.1993 18.3764C24.4977 17.8608 24.3196 17.2014 23.804 16.903L21.7259 15.703L23.804 14.503C24.3212 14.2061 24.4977 13.5468 24.1993 13.0311Z" fill="#29B5E8"/>
</g>
<defs>
<clipPath id="clip0_116_2688">
<rect width="32" height="32" fill="white"/>
</clipPath>
</defs>
</svg>
