<svg width="58" height="58" viewBox="0 0 58 58" fill="none" xmlns="http://www.w3.org/2000/svg">
<circle cx="29" cy="29" r="29" fill="black"/>
<path d="M29 6C18.393 6 9.44483 13.219 6.79883 23H8.88477C9.63283 20.4979 10.8461 18.199 12.4062 16.1816C14.1141 17.1444 16.0901 17.9486 18.2754 18.5684C17.9114 19.9688 17.6096 21.4449 17.3984 23H19.4375C19.6404 21.6239 19.9173 20.3107 20.2461 19.0625C22.6563 19.594 25.2626 19.9084 28 19.9707V23H30V19.9707C32.7372 19.9084 35.3442 19.5957 37.7539 19.0645C38.0825 20.3121 38.3597 21.6246 38.5625 23H40.6016C40.3904 21.4449 40.0886 19.9688 39.7246 18.5684C41.9102 17.9486 43.8859 17.1448 45.5938 16.1816C47.1539 18.199 48.3672 20.4979 49.1152 23H51.2012C48.5552 13.219 39.607 6 29 6ZM28 8.12109V17.9707C25.4576 17.9085 23.04 17.6155 20.8145 17.1328C22.4555 12.213 25.0617 8.76801 28 8.12109ZM30 8.12109C32.9383 8.76801 35.5445 12.213 37.1855 17.1328C34.9602 17.6155 32.5425 17.9085 30 17.9707V8.12109ZM23.1328 8.85352C21.3725 10.7092 19.8985 13.3909 18.8359 16.6406C16.9239 16.1002 15.2008 15.4197 13.7227 14.627C16.2557 11.9328 19.4912 9.91723 23.1328 8.85352ZM34.8672 8.85352C38.5088 9.91723 41.7443 11.9328 44.2773 14.627C42.7995 15.4198 41.0761 16.1001 39.1641 16.6406C38.1015 13.3909 36.6275 10.7092 34.8672 8.85352ZM7 25L9.53906 33H11.8691L13.9824 27.0195L16.1016 33H18.3809L20.9648 25H18.8008L17.168 30.5879L15.3027 25H12.748L10.8027 30.4941L9.19922 25H7ZM22.0176 25L24.5586 33H26.8887L29 27.0195L31.1191 33H33.3984L35.9824 25H33.8184L32.1855 30.5879L30.3203 25H27.7656L25.8203 30.4941L24.2168 25H22.0176ZM36.9824 25L39.5332 33H41.8711L43.9922 27.0195L46.1191 33H48.4062L51 25H48.8281L47.1895 30.5879L45.3184 25H42.7539L40.8008 30.4941L39.1895 25H36.9824ZM6.79883 35C9.44483 44.781 18.393 52 29 52C39.607 52 48.5552 44.781 51.2012 35H49.1152C48.3672 37.5021 47.1539 39.801 45.5938 41.8184C43.8859 40.8556 41.9099 40.0514 39.7246 39.4316C40.0887 38.0312 40.3904 36.5551 40.6016 35H38.5625C38.3595 36.3761 38.0828 37.6893 37.7539 38.9375C35.3437 38.406 32.7374 38.0916 30 38.0293V35H28V38.0293C25.2628 38.0916 22.6558 38.4043 20.2461 38.9355C19.9175 37.6879 19.6403 36.3754 19.4375 35H17.3984C17.6098 36.5551 17.9113 38.0313 18.2754 39.4316C16.0898 40.0514 14.1141 40.8552 12.4062 41.8184C10.8461 39.801 9.63283 37.5021 8.88477 35H6.79883ZM28 40.0293V49.8789C25.0617 49.232 22.4555 45.787 20.8145 40.8672C23.0398 40.3845 25.4575 40.0915 28 40.0293ZM30 40.0293C32.5424 40.0915 34.96 40.3845 37.1855 40.8672C35.5444 45.787 32.9382 49.232 30 49.8789V40.0293ZM18.8379 41.3594C19.9006 44.6091 21.3726 47.2908 23.1328 49.1465C19.4912 48.0828 16.2557 46.0672 13.7227 43.373C15.201 42.5799 16.9252 41.9 18.8379 41.3594ZM39.1641 41.3594C41.0761 41.8998 42.7992 42.5803 44.2773 43.373C41.7443 46.0672 38.5088 48.0828 34.8672 49.1465C36.6276 47.2907 38.1014 44.6093 39.1641 41.3594Z" fill="white"/>
</svg>
